<svg xmlns="http://www.w3.org/2000/svg" viewBox="0 0 180 180">
  <rect x="22" y="18" width="12" height="144" rx="6" fill="#394d61"/>
  <rect x="146" y="18" width="12" height="144" rx="6" fill="#394d61"/>
  <rect x="34" y="32" width="112" height="12" rx="6" fill="#5d7690"/>
  <rect x="34" y="84" width="112" height="12" rx="6" fill="#5d7690"/>
  <rect x="34" y="136" width="112" height="12" rx="6" fill="#5d7690"/>
  <rect x="42" y="46" width="32" height="26" rx="6" fill="#d59657"/>
  <rect x="78" y="46" width="28" height="26" rx="6" fill="#f0c670"/>
  <rect x="110" y="46" width="28" height="26" rx="6" fill="#b6ced7"/>
  <rect x="46" y="98" width="36" height="26" rx="6" fill="#6ec3a3"/>
  <rect x="88" y="98" width="48" height="26" rx="6" fill="#ff8d54"/>
  <rect x="50" y="150" width="28" height="10" rx="5" fill="#8aa5b7"/>
  <rect x="92" y="150" width="38" height="10" rx="5" fill="#8aa5b7"/>
</svg>
