<svg width="220" height="220" viewBox="0 0 220 220" fill="none" xmlns="http://www.w3.org/2000/svg">
  <rect x="32" y="20" width="156" height="180" rx="20" fill="#DFF4FF" stroke="#8CB8D6" stroke-width="8"/>
  <rect x="48" y="40" width="124" height="62" rx="14" fill="#F7FDFF"/>
  <rect x="48" y="114" width="124" height="62" rx="14" fill="#F7FDFF"/>
  <rect x="164" y="54" width="6" height="36" rx="3" fill="#7FA8C9"/>
  <rect x="164" y="128" width="6" height="36" rx="3" fill="#7FA8C9"/>
  <path d="M70 54H92V90H70L76 72L70 54Z" fill="#F0F8FF"/>
  <rect x="92" y="54" width="18" height="36" fill="#66A7FF"/>
  <path d="M114 54H136V90H114L120 72L114 54Z" fill="#F0F8FF"/>
  <rect x="136" y="54" width="18" height="36" fill="#66A7FF"/>
  <circle cx="87" cy="145" r="16" fill="#FFE4A8"/>
  <circle cx="128" cy="145" r="16" fill="#FFD062"/>
  <path d="M76 148H139" stroke="#B7D8EA" stroke-width="5" stroke-linecap="round"/>
</svg>
