<svg width="220" height="140" viewBox="0 0 220 140" xmlns="http://www.w3.org/2000/svg">
  <rect x="18" y="104" width="184" height="16" rx="8" fill="#41576B" opacity="0.45"/>
  <rect x="28" y="24" width="34" height="64" rx="8" fill="#2D4C63"/>
  <rect x="36" y="32" width="18" height="18" rx="4" fill="#FFFFFF"/>
  <text x="45" y="46" font-family="Arial, sans-serif" font-size="12" font-weight="700" text-anchor="middle" fill="#2D4C63">T</text>
  <rect x="68" y="48" width="118" height="42" rx="16" fill="#F5C64A"/>
  <path d="M92 48L112 34H146L164 48" fill="#F7D87A"/>
  <rect x="101" y="42" width="20" height="10" rx="4" fill="#1C2A36"/>
  <rect x="124" y="42" width="28" height="10" rx="4" fill="#1C2A36"/>
  <rect x="84" y="56" width="34" height="16" rx="6" fill="#CBE8F5"/>
  <rect x="123" y="56" width="36" height="16" rx="6" fill="#CBE8F5"/>
  <circle cx="95" cy="92" r="12" fill="#20303E"/>
  <circle cx="95" cy="92" r="5" fill="#E6ECF2"/>
  <circle cx="160" cy="92" r="12" fill="#20303E"/>
  <circle cx="160" cy="92" r="5" fill="#E6ECF2"/>
  <rect x="70" y="72" width="22" height="8" rx="4" fill="#FFFFFF" opacity="0.9"/>
  <rect x="166" y="72" width="12" height="8" rx="4" fill="#FFFFFF" opacity="0.9"/>
</svg>
