<svg width="64" height="64" viewBox="0 0 64 64" fill="none" xmlns="http://www.w3.org/2000/svg">
  <rect width="64" height="64" rx="18" fill="#EAF1FF"/>
  <path d="M18 19H42V41C42 47.0751 37.0751 52 31 52H29C22.9249 52 18 47.0751 18 41V19Z" fill="#68A7FF"/>
  <path d="M42 23H47C50.866 23 54 26.134 54 30C54 33.866 50.866 37 47 37H42V23Z" fill="#9FC5FF"/>
  <path d="M22 24H38V40C38 44.4183 34.4183 48 30 48C25.5817 48 22 44.4183 22 40V24Z" fill="#FFFFFF"/>
  <path d="M24 16C24 13.7909 25.7909 12 28 12H32C34.2091 12 36 13.7909 36 16V19H24V16Z" fill="#FF8F5A"/>
  <path d="M44 27H47C48.6569 27 50 28.3431 50 30C50 31.6569 48.6569 33 47 33H44V27Z" fill="#FFFFFF"/>
</svg>
