<svg xmlns="http://www.w3.org/2000/svg" viewBox="0 0 120 120">
  <ellipse cx="60" cy="108" rx="26" ry="8" fill="#334155" opacity="0.14"/>
  <rect x="44" y="70" width="32" height="22" rx="8" fill="#b45309"/>
  <path d="M60 28c18 0 20 18 10 28-8 8-12 10-10 22-2-12-6-14-14-24C36 42 40 28 60 28z" fill="#10b981"/>
  <path d="M78 38c14 2 16 16 8 24-6 6-8 8-8 16 0-8-4-10-10-18-8-10-4-24 10-22z" fill="#34d399"/>
  <path d="M42 40c-14 2-16 16-8 24 6 6 8 8 8 16 0-8 4-10 10-18 8-10 4-24-10-22z" fill="#34d399"/>
</svg>
